<?xml version="1.0" encoding="utf-8"?>
<!-- Generator: Adobe Illustrator 26.0.2, SVG Export Plug-In . SVG Version: 6.00 Build 0)  -->
<svg version="1.1" xmlns="http://www.w3.org/2000/svg" xmlns:xlink="http://www.w3.org/1999/xlink" x="0px" y="0px"
	 viewBox="-11 -106 363 320" xml:space="preserve">
<style type="text/css">
	.st0{fill:#FFFFFF;}
</style>
<g id="Layer_1">
	<g>
		<path d="M352.22-25.54l0.1,158.72c0.01,11.05-8.48,22.83-18.96,26.33l-162.98,54.38c-0.01,0-0.01,0-0.02,0L7.41,159.61
			c-10.48-3.49-18.97-15.27-18.95-26.32l0.17-158.7c0.01-11.05,8.52-22.83,19-26.32l162.74-54.23c0.01,0,0.01,0,0.02,0l162.85,54.11
			C343.71-48.37,352.21-36.59,352.22-25.54z"/>
	</g>
	
		<text transform="matrix(1.0875 0 0 1 38.1416 -122.8904)" style="display:none;fill:#FFFFFF; font-family:'NasalizationRg-Regular'; font-size:140.1223px; letter-spacing:2.76;">RS</text>
</g>
<g id="Layer_2">
	<path class="st0" d="M83.05-48.02c41.03-10.48,65.93,16.79,65.93,54.99c0,29.71-17.32,61.81-46.97,70.01l46.97,99.22l-39.87-10.74
		l-38.84-87.7l-36.42-2.42c-2.05-0.14-3.15,1.12-3.15,4.3v64.7l-20.38-5.49V72.28c0-18.95,5.28-26.79,18.19-27.06l55.51-1.19
		c17.18-0.37,24.53-15.51,24.53-31.14c0-15.63-7.89-27.7-24.53-24.97L10.16,0.01v-29.4L83.05-48.02z"/>
	<path class="st0" d="M330.11-32.52l0.05,29.92l-78.75-13.73c-15.99-2.28-23.36,7.36-23.36,22.66c0,13.35,5.53,27.3,26.18,28.01
		l36.54,2.53c35.6,1.22,43.06,27.36,43.06,51.98c0,28.93-10.67,52.75-40.53,59.77l-96.69,25.98l-0.11-42.67l97.63-16.63
		c12.9-2,18.49-12.25,18.49-25.39c0-11.8-4.42-22.34-21.21-21.66l-35.96,1.47C205.73,71.76,192.52,37,192.52,4.14
		c0-39.15,18.61-66.62,59.86-57.43L330.11-32.52z"/>
</g>
</svg>
